<svg width="21" height="12" viewBox="0 0 21 12" fill="none" xmlns="http://www.w3.org/2000/svg">
<path d="M0.800013 6.75001L18.2687 6.75005L14.0342 10.7198C13.7218 11.0127 13.7218 11.4875 14.0342 11.7803C14.3466 12.0732 14.8532 12.0732 15.1656 11.7803L20.7657 6.5303C21.0781 6.23742 21.0781 5.76248 20.7657 5.46979L15.1656 0.219752C15.0094 0.0733132 14.8046 0 14.5998 0C14.3952 0 14.1904 0.0733132 14.0342 0.219752C13.7218 0.512629 13.7218 0.98757 14.0342 1.28026L18.2687 5.25004L0.800013 5.24999C0.358206 5.24999 0 5.58581 0 6C0 6.41419 0.358206 6.75001 0.800013 6.75001Z" fill="#30374B"/>
</svg>
