<svg width="9" height="16" viewBox="0 0 9 16" fill="none" xmlns="http://www.w3.org/2000/svg">
<path d="M5.93341 15.9873C5.84579 15.9905 5.78972 15.9968 5.73365 15.9968C4.53505 15.9968 3.33995 15.9936 2.14136 16C1.97313 16 1.92757 15.9587 1.92757 15.8063C1.93107 13.2788 1.93108 10.7482 1.93108 8.22068C1.93108 8.154 1.93108 8.08732 1.93108 8.00159C1.27921 8.00159 0.64486 8.00159 0 8.00159C0 7.09983 0 6.21394 0 5.30264C0.0665888 5.30264 0.129673 5.30264 0.189252 5.30264C0.714953 5.30264 1.24065 5.29947 1.76636 5.30582C1.89953 5.30582 1.93458 5.27089 1.93458 5.15341C1.92757 4.44533 1.92757 3.73408 1.93458 3.026C1.93808 2.53067 2.0257 2.04803 2.27804 1.60032C2.63902 0.968454 3.21028 0.558849 3.93224 0.30483C4.52103 0.0952649 5.14136 0.0190593 5.76519 0.00953364C6.78154 -0.00316729 7.7979 0.00318317 8.81425 7.93809e-06C8.90888 7.93809e-06 8.98598 -0.00316729 8.98598 0.117492C8.98248 0.99068 8.98248 1.86387 8.98248 2.73706C8.98248 2.74658 8.97897 2.75611 8.96495 2.79739C8.90537 2.79739 8.83878 2.79739 8.7722 2.79739C8.14135 2.79739 7.51051 2.79421 6.87967 2.79739C6.51519 2.79739 6.2208 2.93075 6.03505 3.21969C5.97897 3.30542 5.94393 3.41656 5.94393 3.51816C5.93341 4.05795 5.94393 4.59774 5.93692 5.13753C5.93692 5.26454 5.97897 5.29947 6.11565 5.29947C6.99182 5.29312 7.86799 5.29629 8.74416 5.29629C8.81425 5.29629 8.88084 5.29629 9 5.29629C8.87734 6.20441 8.75818 7.09348 8.63551 7.99207C7.7243 7.99207 6.83762 7.99207 5.93341 7.99207C5.93341 10.6624 5.93341 13.3169 5.93341 15.9873Z" fill="white"/>
</svg>
