<svg width="17" height="17" viewBox="0 0 17 17" fill="none" xmlns="http://www.w3.org/2000/svg">
<path d="M16.4783 8.24514C16.4783 9.40151 16.455 10.5612 16.4849 11.7176C16.5348 13.7645 15.2488 15.3462 13.6106 16.0506C12.9527 16.3331 12.2615 16.4826 11.5471 16.4826C9.31077 16.4859 7.07113 16.5158 4.83482 16.4726C3.15011 16.4394 1.76446 15.735 0.770913 14.346C0.249218 13.6149 0 12.7842 0 11.8837C0 9.50119 0 7.122 0 4.73948C0 2.79558 0.947027 1.43651 2.62842 0.552619C3.35945 0.170485 4.15363 0.00766302 4.98103 0.00434012C7.15088 0.00434012 9.32406 -0.00895149 11.4939 0.0109859C13.1786 0.0242775 14.5842 0.668921 15.621 2.02466C16.1991 2.78229 16.4783 3.65289 16.4783 4.60988C16.4783 5.81942 16.4783 7.03228 16.4783 8.24514ZM1.22615 8.24514C1.22615 9.46464 1.22615 10.6808 1.22615 11.9003C1.22615 12.4453 1.35242 12.957 1.63487 13.4189C2.37587 14.6318 3.49569 15.2232 4.88467 15.2465C7.11433 15.2797 9.34732 15.2598 11.5803 15.2531C12.1286 15.2531 12.6603 15.1402 13.1554 14.9042C14.5045 14.2596 15.2588 13.2328 15.2521 11.691C15.2388 9.33173 15.2488 6.97247 15.2488 4.6132C15.2488 3.9453 15.0594 3.33389 14.664 2.79558C13.8997 1.76216 12.843 1.25375 11.5803 1.24046C9.35397 1.21388 7.12762 1.23049 4.90128 1.23381C4.42611 1.23381 3.96754 1.33018 3.52228 1.49632C2.29945 1.95156 1.16302 3.10461 1.21618 4.80261C1.25606 5.95233 1.22615 7.09874 1.22615 8.24514Z" fill="white"/>
<path d="M8.25732 11.7674C6.11405 11.7674 4.38614 10.0595 4.38282 7.93281C4.37949 5.83938 6.12069 4.12476 8.25067 4.12476C10.3873 4.12144 12.1219 5.83273 12.1252 7.94277C12.1252 10.0495 10.3939 11.7641 8.25732 11.7674ZM8.25732 10.538C9.71607 10.538 10.899 9.37162 10.8957 7.93613C10.8924 6.51393 9.70943 5.35091 8.25732 5.35091C6.79857 5.35091 5.60897 6.5106 5.60897 7.94277C5.61229 9.37827 6.79857 10.5413 8.25732 10.538Z" fill="white"/>
<path d="M12.5739 2.96191C13.0225 2.96191 13.388 3.34405 13.388 3.81258C13.3847 4.28111 13.0158 4.65992 12.5672 4.65659C12.1253 4.65327 11.7631 4.27446 11.7631 3.8159C11.7598 3.34737 12.1253 2.96191 12.5739 2.96191Z" fill="white"/>
</svg>
