<svg width="20" height="17" viewBox="0 0 20 17" fill="none" xmlns="http://www.w3.org/2000/svg">
<path d="M0.0273438 14.3356C2.19922 14.5309 4.15625 13.984 5.9375 12.6481C4.07422 12.484 2.82813 11.5543 2.13281 9.81212C2.74219 9.88634 3.3125 9.90587 3.91797 9.74181C1.91016 9.11681 0.839844 7.80431 0.695313 5.68712C1.29688 5.96837 1.86328 6.17149 2.53125 6.17931C1.33984 5.28478 0.730469 4.12462 0.753907 2.66368C0.765625 1.99181 0.945313 1.35899 1.30078 0.761339C3.50781 3.34337 6.27735 4.77306 9.6875 5.01134C9.66797 4.8629 9.65625 4.74571 9.64063 4.62462C9.35938 2.46056 10.7656 0.491807 12.9141 0.0816512C14.2617 -0.176161 15.4531 0.179308 16.4609 1.10899C16.6172 1.24962 16.75 1.28087 16.9453 1.23009C17.7305 1.03087 18.4766 0.741807 19.1992 0.351182C18.9219 1.26524 18.3516 1.95274 17.5781 2.53087C17.7539 2.49962 17.9336 2.47618 18.1094 2.44103C18.293 2.40196 18.4766 2.35899 18.6602 2.30821C18.8359 2.26134 19.0078 2.20665 19.1797 2.14806C19.3555 2.08946 19.5313 2.02306 19.7383 1.9879C19.6367 2.12853 19.5391 2.27696 19.4297 2.41368C18.9766 2.9879 18.4531 3.49181 17.8789 3.94103C17.8203 3.9879 17.7695 4.08946 17.7734 4.15978C17.8047 5.54649 17.6094 6.89806 17.1602 8.21056C16.2774 10.7965 14.7383 12.8902 12.4297 14.3863C11.2891 15.1246 10.043 15.609 8.71094 15.8902C7.39063 16.1676 6.0625 16.2184 4.73047 16.0621C3.39453 15.9059 2.125 15.5113 0.929688 14.8941C0.613282 14.734 0.308594 14.5543 0 14.3824C0.0117188 14.3668 0.0195313 14.3512 0.0273438 14.3356Z" fill="white"/>
</svg>
